<svg width="717" height="130" viewBox="0 0 717 130" version="2.0" xmlns="http://www.w3.org/2000/svg" xmlns:xlink="http://www.w3.org/1999/xlink" xmlns:figma="http://www.figma.com/figma/ns">
<title>Splash Logo.svg</title>
<desc>Created using Figma 0.90</desc>
<g id="Canvas" transform="translate(228 331)" figma:type="canvas">
<g id="Splash Logo" style="mix-blend-mode:normal;" figma:type="frame">
<g id="Vector" style="mix-blend-mode:normal;" figma:type="vector">
<use xlink:href="#path0_fill" transform="translate(-228 -331)" fill="#FFFFFF" style="mix-blend-mode:normal;"/>
<use xlink:href="#path1_fill" transform="translate(-228 -331)" fill="#FFFFFF" style="mix-blend-mode:normal;"/>
<use xlink:href="#path2_fill" transform="translate(-228 -331)" fill="#FFFFFF" style="mix-blend-mode:normal;"/>
<use xlink:href="#path3_fill" transform="translate(-228 -331)" fill="#FFFFFF" style="mix-blend-mode:normal;"/>
<use xlink:href="#path4_fill" transform="translate(-228 -331)" fill="#FFFFFF" style="mix-blend-mode:normal;"/>
<use xlink:href="#path5_fill" transform="translate(-228 -331)" fill="#FFFFFF" style="mix-blend-mode:normal;"/>
<use xlink:href="#path6_fill" transform="translate(-228 -331)" fill="#FFFFFF" style="mix-blend-mode:normal;"/>
<use xlink:href="#path7_fill" transform="translate(-228 -331)" fill="#FFFFFF" style="mix-blend-mode:normal;"/>
</g>
<g id="THINKFUL TUBE" style="mix-blend-mode:normal;" figma:type="text">
<use xlink:href="#path8_fill" transform="translate(-91 -331)" fill="#FFFFFF" style="mix-blend-mode:normal;"/>
</g>
</g>
</g>
<defs>
<path id="path0_fill" d="M 0 10L 10 10L 10 20L 0 20L 0 10Z"/>
<path id="path1_fill" d="M 0 0L 85 0L 85 10L 0 10L 0 0Z"/>
<path id="path2_fill" d="M 64 20L 105 20L 105 30L 64 30L 64 20Z"/>
<path id="path3_fill" d="M 44 30L 44 110L 34 110L 34 30L 44 30Z"/>
<path id="path4_fill" d="M 64 20L 64 120L 54 120L 54 20L 64 20Z"/>
<path id="path5_fill" d="M 105 0L 105 20L 95 20L 95 0L 105 0Z"/>
<path id="path6_fill" d="M 0 20L 44 20L 44 30L 0 30L 0 20Z"/>
<path id="path7_fill" d="M 34 120L 64 120L 64 130L 34 130L 34 120Z"/>
<path id="path8_fill" d="M 14.9531 111.43L 14.9531 38.1172L -0.046875 38.1172L -0.046875 27.4297L 41.9531 27.4297L 41.9531 38.1172L 26.9531 38.1172L 26.9531 111.43L 14.9531 111.43ZM 47.9062 111.43L 47.9062 27.4297L 59.9062 27.4297L 59.9062 63.4297L 80.9062 63.4297L 80.9062 27.4297L 92.9062 27.4297L 92.9062 111.43L 80.9062 111.43L 80.9062 72.4297L 59.9062 72.4297L 59.9062 111.43L 47.9062 111.43ZM 105.469 111.43L 105.469 27.4297L 117.469 27.4297L 117.469 111.43L 105.469 111.43ZM 130.312 111.43L 130.312 27.4297L 139.312 27.4297L 160.312 79.3672L 160.312 27.4297L 172.312 27.4297L 172.312 111.43L 163.781 111.43L 142.312 55.5547L 142.312 111.43L 130.312 111.43ZM 184.312 111.43L 184.312 27.4297L 196.312 27.4297L 196.312 63.4297L 214.312 27.4297L 229.312 27.4297L 211.266 60.4297L 232.312 111.43L 217.312 111.43L 202.312 72.4297L 196.312 84.4297L 196.312 111.43L 184.312 111.43ZM 236.719 111.43L 236.719 27.4297L 269.719 27.4297L 269.719 36.4297L 248.719 36.4297L 248.719 63.4297L 263.719 63.4297L 263.719 72.4297L 248.719 72.4297L 248.719 111.43L 236.719 111.43ZM 308.25 110.867C 305.469 111.836 302.25 112.32 298.594 112.32C 294.938 112.32 291.719 111.836 288.938 110.867C 286.156 109.898 283.859 108.555 282.047 106.836C 280.266 105.086 278.812 102.898 277.688 100.273C 276.562 97.6484 275.766 94.8203 275.297 91.7891C 274.828 88.7266 274.594 85.2734 274.594 81.4297L 274.594 27.4297L 286.594 27.4297L 286.594 81.4297C 286.594 84.0234 286.641 86.1953 286.734 87.9453C 286.859 89.6953 287.156 91.5703 287.625 93.5703C 288.094 95.5391 288.734 97.1172 289.547 98.3047C 290.391 99.4922 291.562 100.477 293.062 101.258C 294.594 102.039 296.438 102.43 298.594 102.43C 300.75 102.43 302.578 102.039 304.078 101.258C 305.609 100.477 306.781 99.4922 307.594 98.3047C 308.438 97.1172 309.094 95.5391 309.562 93.5703C 310.031 91.5703 310.312 89.6953 310.406 87.9453C 310.531 86.1953 310.594 84.0234 310.594 81.4297L 310.594 27.4297L 322.594 27.4297L 322.594 81.4297C 322.594 85.2734 322.359 88.7266 321.891 91.7891C 321.422 94.8203 320.625 97.6484 319.5 100.273C 318.375 102.898 316.906 105.086 315.094 106.836C 313.312 108.555 311.031 109.898 308.25 110.867ZM 333.938 111.43L 333.938 27.4297L 345.938 27.4297L 345.938 102.43L 366.938 102.43L 366.938 111.43L 333.938 111.43ZM 401.016 111.43L 401.016 38.1172L 386.016 38.1172L 386.016 27.4297L 428.016 27.4297L 428.016 38.1172L 413.016 38.1172L 413.016 111.43L 401.016 111.43ZM 466.969 110.867C 464.188 111.836 460.969 112.32 457.312 112.32C 453.656 112.32 450.438 111.836 447.656 110.867C 444.875 109.898 442.578 108.555 440.766 106.836C 438.984 105.086 437.531 102.898 436.406 100.273C 435.281 97.6484 434.484 94.8203 434.016 91.7891C 433.547 88.7266 433.312 85.2734 433.312 81.4297L 433.312 27.4297L 445.312 27.4297L 445.312 81.4297C 445.312 84.0234 445.359 86.1953 445.453 87.9453C 445.578 89.6953 445.875 91.5703 446.344 93.5703C 446.812 95.5391 447.453 97.1172 448.266 98.3047C 449.109 99.4922 450.281 100.477 451.781 101.258C 453.313 102.039 455.156 102.43 457.312 102.43C 459.469 102.43 461.297 102.039 462.797 101.258C 464.328 100.477 465.5 99.4922 466.312 98.3047C 467.156 97.1172 467.812 95.5391 468.281 93.5703C 468.75 91.5703 469.031 89.6953 469.125 87.9453C 469.25 86.1953 469.312 84.0234 469.312 81.4297L 469.312 27.4297L 481.312 27.4297L 481.312 81.4297C 481.312 85.2734 481.078 88.7266 480.609 91.7891C 480.141 94.8203 479.344 97.6484 478.219 100.273C 477.094 102.898 475.625 105.086 473.812 106.836C 472.031 108.555 469.75 109.898 466.969 110.867ZM 504.656 63.4297L 510.656 63.4297C 520.656 63.4297 525.656 58.4297 525.656 48.4297C 525.656 46.7734 525.453 45.3203 525.047 44.0703C 524.641 42.7891 524.156 41.7266 523.594 40.8828C 523.031 40.0391 522.172 39.3359 521.016 38.7734C 519.891 38.1797 518.859 37.7266 517.922 37.4141C 516.984 37.1016 515.641 36.8828 513.891 36.7578C 512.172 36.6016 510.734 36.5078 509.578 36.4766C 508.422 36.4453 506.781 36.4297 504.656 36.4297L 504.656 63.4297ZM 504.656 102.43L 510.656 102.43C 515.844 102.43 519.641 101.242 522.047 98.8672C 524.453 96.4609 525.656 92.6484 525.656 87.4297C 525.656 82.2109 524.453 78.4141 522.047 76.0391C 519.641 73.6328 515.844 72.4297 510.656 72.4297L 504.656 72.4297L 504.656 102.43ZM 492.656 111.43L 492.656 27.4297L 510.656 27.4297C 514.531 27.4297 518 27.8359 521.062 28.6484C 524.125 29.4609 526.797 30.6953 529.078 32.3516C 531.391 34.0078 533.156 36.1953 534.375 38.9141C 535.625 41.6328 536.25 44.8047 536.25 48.4297C 536.25 53.6797 535.141 57.6797 532.922 60.4297C 530.703 63.1484 527.281 65.1484 522.656 66.4297C 527.656 68.0859 531.406 70.5234 533.906 73.7422C 536.406 76.9297 537.656 81.4922 537.656 87.4297C 537.656 94.8359 535.5 100.695 531.188 105.008C 526.906 109.289 521.062 111.43 513.656 111.43L 492.656 111.43ZM 546.375 111.43L 546.375 27.4297L 579.375 27.4297L 579.375 36.4297L 558.375 36.4297L 558.375 63.4297L 573.375 63.4297L 573.375 72.4297L 558.375 72.4297L 558.375 102.43L 579.375 102.43L 579.375 111.43L 546.375 111.43Z"/>
</defs>
</svg>
